<?xml version="1.0" standalone="no"?>
<!DOCTYPE svg PUBLIC "-//W3C//DTD SVG 20010904//EN"
 "http://www.w3.org/TR/2001/REC-SVG-20010904/DTD/svg10.dtd">
<svg version="1.0" xmlns="http://www.w3.org/2000/svg"
 width="136.000000pt" height="161.000000pt" viewBox="0 0 136.000000 161.000000"
 preserveAspectRatio="xMidYMid meet">

<g transform="translate(0.000000,161.000000) scale(0.100000,-0.100000)"
fill="#000000" stroke="none">
<path d="M663 1207 c-10 -13 -34 -88 -53 -167 -26 -108 -40 -146 -55 -155 -11
-7 -83 -30 -160 -50 -77 -20 -148 -43 -157 -52 -21 -19 -23 -66 -4 -85 8 -8
80 -32 161 -53 81 -21 155 -45 165 -54 10 -10 32 -73 55 -161 20 -80 44 -153
52 -162 21 -23 65 -23 86 0 9 10 33 83 53 162 23 89 44 151 55 161 10 9 75 30
146 48 70 17 140 37 156 43 49 19 49 97 0 116 -16 6 -86 26 -157 43 -71 18
-137 40 -146 49 -9 9 -30 68 -45 131 -34 139 -52 191 -68 201 -24 16 -65 8
-84 -15z m77 -229 c40 -159 47 -167 191 -204 60 -15 109 -30 109 -33 0 -4 -49
-19 -109 -34 -141 -37 -152 -48 -189 -190 -15 -59 -29 -107 -32 -107 -3 0 -16
41 -28 92 -40 162 -48 170 -210 210 -51 12 -92 25 -92 28 0 3 48 17 107 32
142 37 153 48 190 189 15 60 30 109 34 109 3 0 16 -42 29 -92z"/>
<path d="M1048 1179 c-12 -6 -18 -22 -18 -44 0 -31 -3 -35 -26 -35 -39 0 -64
-18 -64 -45 0 -27 25 -45 64 -45 23 0 26 -4 26 -35 0 -41 28 -62 60 -45 14 8
20 21 20 45 0 31 3 35 26 35 39 0 64 18 64 45 0 27 -25 45 -64 45 -23 0 -26 4
-26 35 0 24 -6 37 -19 45 -23 12 -22 12 -43 -1z"/>
<path d="M328 549 c-10 -5 -18 -17 -18 -24 0 -8 -7 -15 -15 -15 -8 0 -19 -9
-25 -20 -13 -24 3 -60 25 -60 8 0 15 -7 15 -15 0 -22 36 -38 60 -25 11 6 20
17 20 25 0 8 7 15 15 15 8 0 19 9 25 20 13 24 -3 60 -25 60 -8 0 -15 7 -15 15
0 8 -9 19 -19 25 -23 12 -22 12 -43 -1z"/>
</g>
</svg>
